<?xml version="1.0" standalone="no"?><!DOCTYPE svg PUBLIC "-//W3C//DTD SVG 1.1//EN" "http://www.w3.org/Graphics/SVG/1.1/DTD/svg11.dtd"><svg t="1555404338720" class="icon" style="" viewBox="0 0 1024 1024" version="1.1" xmlns="http://www.w3.org/2000/svg" p-id="2323" xmlns:xlink="http://www.w3.org/1999/xlink" width="16" height="16"><defs><style type="text/css"></style></defs><path d="M409.9 795.1c0.4 4.8 4.1 8.2 8.2 7.7l158-19.7c4-0.5 6.9-4.6 6.6-9.2-0.3-4.8-4-8.4-8.2-7.9l-158 19.7c-4 0.5-7 4.7-6.6 9.4zM628.7 780.7c0.9 0.3 1.8 0.4 2.7 0.4 5.5 0 10.9-5 12.9-12.7 1.1-4 1-8.2-0.2-11.8-1.3-3.9-3.9-6.7-7.1-7.7-3.2-1-6.8-0.1-9.8 2.4-2.7 2.3-4.8 5.8-5.9 9.9-2.2 8.9 1 17.5 7.4 19.5z m-0.9-17.5c0.7-2.6 2-4.8 3.6-6.2 0.6-0.5 1.8-1.3 3-1.3 0.3 0 0.6 0 0.9 0.1 1.6 0.5 2.4 2.3 2.7 3.3 0.7 2.1 0.7 4.8 0 7.3-1.3 4.8-4.8 8.2-7.5 7.3-2.7-0.8-4-5.7-2.7-10.5z" p-id="2324"></path><path d="M959.3 652.5L850.5 210.2c-3.6-14.5-16-14.7-30.2-14.8l-57.5-0.3c-1.8 0-3.1-1.7-2.8-3.4l13-60.3c5.8-29.6-15.2-57.5-43.7-58L261.8 64c-20.2-0.4-38.7 12.2-46.6 32L67.3 463.8c-11.2 27.9 7.8 59 36.4 59.5h0.2l161.3-6.2c1.7-0.1 3.1 1.4 2.9 3.1l-31.3 338.5c-0.1 0.9 0.5 2.4 1.5 3.3 0.3 0.3 2.3 1 2.7 1.1l227.2 70.7c5.8 1.7 86.3 26.4 86.5 26.3l346.8-94.9c9.5-1.3 11.5-15.3 2.8-19.7 0 0-188.6-59.8-188.4-61.1l10.4-85.5c0.2-1.3 1.2-2.3 2.5-2.5l212.9-21.1c12.5-1.4 20.8-10.1 17.6-22.8zM139.5 470.6c-7.7 0-12.9-7.4-9.9-14.1l135.9-323.2c3.8-8.4 12.6-13.8 22.3-13.7l430.6 5c11.1 0.1 9.2 12.4 8.5 23.1v0.2l-5.2 41.7c-0.2 1.4-1.4 2.5-2.8 2.5l-352.4 1.2c-24.9-0.1-43.6 23.9-38.5 49.6l24.2 113.4c0.4 1.8-1 3.4-2.8 3.4H322c-26 0-40.6 21.7-42.7 49.9l-4.1 54.9c-0.1 1.4-1.3 2.6-2.8 2.6l-132.9 3.5z m683.2 386.6s-261.9 62.4-262.3 62.3c0 0-198.1-52.2-195.1-52.8 0 0 327.5-50.9 328-50.8 24.9 7.8 135.6 41.8 129.4 41.3z m-155.1-65.8l-369.7 57c-1.8 0.3-3.4-1.2-3.3-3l35.8-397.9c2-26.3 3.2-23.1 27.4-23.1h5.7c1.4 0 2.5 1 2.8 2.3l53.6 269.9c4.6 23.3 25.2 28.1 47.7 25.5l207.7-20.5c1.8-0.2 3.3 1.3 3.1 3.1l-8.5 84.2c-0.1 1.3-1.1 2.3-2.3 2.5z m210.7-166.5l-375.6 37c-14.2 1.5-27.2 3.6-30.2-10.3l-82.1-381.4c-2.4-10.9-1.5-21.2 9.7-21.1l394-2c11.7 0 14.5 7.9 17.5 19.2l81.5 345.1c3 10.2-4.1 12.4-14.8 13.5z" p-id="2325"></path><path d="M676.4 451.5l1.8 7.9 34.4 0.4c5.3 0.1 10.6 2.1 16 6.2s9 9.8 10.9 17.1c1.9 7.3 1 13.1-2.6 17.4-3.6 4.3-8.2 6.4-13.6 6.3l-34.3-0.5 12.2 53.2c1.4 6 0.5 11.9-2.7 17.7-3.2 5.8-9.3 8.8-18.3 9-9 0.2-16.5-2.8-22.6-9.1-6.1-6.2-9.9-12.4-11.3-18.7l-12.4-53-33.7-0.5c-5.2-0.1-10.7-2.3-16.4-6.5-5.7-4.2-9.3-9.9-10.9-17.1-1.6-6.6-0.7-12.1 2.8-16.5s7.9-6.6 13.4-6.5l33.8 0.4-1.8-7.8-33.8-0.4c-5.3-0.1-10.9-2.2-16.6-6.5-5.7-4.3-9.4-10-10.9-17-1.6-6.7-0.6-12.1 3-16.1 3.6-4 8.2-6 13.7-5.9l28.8 0.2-74.7-67.6c-4.6-4-8-9.5-10.1-16.5-2.2-7-0.6-13.1 4.7-18.4 5.4-5.3 11.6-7 18.8-5.2 7.2 1.8 13 4.7 17.3 8.6l70.2 64.6 38.2-65.6c2.1-3.6 6.3-6.5 12.6-8.8 6.3-2.3 13.6-0.5 21.8 5.4 8.3 5.9 12.8 12.4 13.6 19.4 0.8 7 0 12.4-2.4 16.1l-43.6 68.5 28.7 0.2c5.4 0 10.9 2.1 16.4 6.3 5.6 4.2 9.2 9.7 10.8 16.6 1.6 6.9 0.5 12.5-3.3 16.7-3.9 4.2-8.3 6.3-13.5 6.3l-34.4-0.3z" p-id="2326"></path></svg>